<?xml version="1.0" standalone="no"?>
<!DOCTYPE svg PUBLIC "-//W3C//DTD SVG 20010904//EN"
 "http://www.w3.org/TR/2001/REC-SVG-20010904/DTD/svg10.dtd">
<svg version="1.0" xmlns="http://www.w3.org/2000/svg"
 width="498.000000pt" height="695.000000pt" viewBox="0 0 498.000000 695.000000"
 preserveAspectRatio="xMidYMid meet">
<metadata>
Created by potrace 1.16, written by Peter Selinger 2001-2019
</metadata>
<g transform="translate(0.000000,695.000000) scale(0.100000,-0.100000)"
fill="#000000" stroke="none">
<path d="M2036 6873 c-1 -1 -67 -9 -146 -18 -80 -9 -154 -20 -165 -26 -11 -5
-52 -18 -90 -29 -169 -45 -335 -110 -388 -152 -20 -16 -58 -41 -84 -54 -58
-29 -221 -176 -292 -264 -80 -98 -155 -229 -202 -349 -22 -58 -46 -117 -52
-131 -6 -14 -11 -27 -11 -30 -9 -39 -46 -117 -72 -151 -83 -109 -120 -170
-180 -295 -35 -74 -64 -139 -64 -145 0 -5 -7 -24 -16 -40 -8 -17 -29 -78 -45
-137 -61 -221 -69 -250 -103 -382 -19 -74 -37 -175 -41 -225 -7 -97 -16 -154
-47 -282 -10 -45 -20 -107 -21 -137 -2 -51 1 -58 34 -93 58 -61 69 -103 69
-258 0 -115 3 -141 19 -171 11 -20 23 -62 27 -93 4 -31 21 -86 40 -123 27 -57
35 -86 43 -178 6 -61 16 -120 22 -133 58 -108 252 -306 301 -307 9 0 30 12 47
26 l31 26 9 -25 c6 -14 15 -54 21 -89 17 -101 40 -195 75 -313 18 -60 44 -148
58 -195 l24 -84 -21 -36 c-57 -97 -274 -326 -434 -459 l-54 -44 6 -586 c3
-322 9 -655 12 -739 l7 -153 228 3 c125 2 231 7 235 11 4 4 -4 45 -19 90 -15
46 -27 103 -27 128 0 24 -9 71 -20 103 -64 190 28 394 222 494 48 24 63 27
158 26 145 0 251 -20 330 -60 36 -18 126 -59 200 -92 169 -75 346 -155 385
-175 25 -13 165 -74 308 -134 21 -9 40 -20 43 -24 7 -12 -50 -117 -132 -242
-41 -61 -74 -115 -74 -119 0 -4 153 -8 341 -8 l340 0 -6 23 c-4 12 -17 36 -29
52 -34 46 -134 218 -151 259 -9 20 -13 41 -10 46 3 5 43 28 88 51 109 54 168
94 253 170 40 35 109 87 155 115 46 28 144 88 217 134 74 45 138 78 142 74 14
-15 44 -244 89 -664 l26 -255 310 -3 310 -2 -2 482 -3 482 -107 57 c-165 87
-195 103 -241 133 -42 26 -43 28 -28 49 9 12 37 57 63 100 27 43 74 119 106
170 91 144 142 242 192 370 55 141 71 218 80 392 4 72 11 149 17 173 12 47 47
82 84 82 14 0 28 9 35 22 7 13 27 40 45 60 18 20 38 54 43 75 6 21 22 56 35
78 14 22 34 60 46 84 11 25 32 59 45 77 14 18 25 37 25 42 0 6 23 55 50 111
28 56 50 107 50 115 0 7 7 20 17 27 24 21 43 73 43 122 0 59 18 149 31 158 6
3 14 36 19 72 4 36 11 70 14 76 4 6 11 39 17 73 5 35 17 93 25 130 13 52 15
90 9 180 -5 62 -9 316 -10 564 l-1 451 -60 119 c-179 357 -207 406 -275 478
-86 92 -100 136 -109 341 -7 167 -14 187 -77 246 -47 44 -76 64 -189 130 -129
75 -255 139 -373 188 -57 24 -116 55 -131 68 -38 32 -167 98 -260 134 -104 41
-219 65 -420 89 -41 5 -111 16 -155 25 -138 26 -301 38 -555 40 -135 1 -262 4
-283 6 -21 2 -39 3 -41 2z m642 -110 c41 -8 84 -18 97 -23 26 -10 84 -79 154
-184 l46 -69 7 49 c3 27 7 75 7 106 1 31 5 59 9 62 5 3 37 -18 73 -45 132
-102 131 -102 237 -110 135 -10 205 -24 294 -58 134 -52 448 -222 663 -360 82
-53 90 -60 88 -87 -2 -16 -4 -72 -5 -124 -3 -109 -5 -106 134 -307 43 -62 78
-115 78 -117 0 -2 22 -40 48 -83 27 -43 72 -121 99 -173 28 -52 63 -117 78
-145 14 -27 48 -97 75 -155 47 -104 48 -106 55 -240 5 -110 4 -142 -9 -171
-12 -29 -14 -76 -12 -255 2 -201 4 -223 24 -263 27 -55 27 -85 3 -164 -11 -34
-24 -91 -30 -127 -17 -112 -33 -183 -52 -232 -11 -26 -19 -64 -19 -86 0 -45
-28 -135 -71 -230 -51 -110 -166 -337 -194 -382 -15 -24 -44 -77 -66 -118 -45
-88 -84 -131 -118 -132 l-23 0 5 118 c3 64 7 124 9 132 16 60 153 211 178 195
5 -3 10 -24 10 -46 0 -46 10 -49 46 -11 50 52 64 107 64 242 0 14 -13 46 -30
73 -25 40 -28 51 -19 75 l10 27 19 -25 c11 -14 31 -49 47 -77 15 -29 30 -53
34 -53 15 0 71 164 89 259 27 141 69 332 80 365 17 49 12 130 -9 157 -43 55
-51 95 -51 243 1 77 6 161 11 186 22 93 4 176 -43 201 l-21 11 7 -153 c9 -207
8 -456 -2 -498 -9 -42 -34 -60 -56 -42 -11 9 -16 31 -16 70 0 115 -17 76 -34
-80 -18 -171 -47 -271 -79 -277 -11 -2 -17 3 -17 17 0 11 -11 51 -25 88 -18
48 -30 113 -40 218 -9 83 -22 173 -29 200 l-13 50 -11 -40 c-7 -22 -17 -76
-23 -120 -13 -99 -22 -111 -58 -86 -14 10 -47 28 -73 39 -27 12 -48 25 -48 30
0 14 -23 18 -215 42 -176 23 -335 22 -486 -1 -131 -20 -141 -20 -182 -4 -56
22 -340 34 -807 35 -280 0 -377 -3 -417 -14 -37 -10 -63 -11 -90 -5 -99 24
-525 32 -653 12 -86 -14 -191 -48 -268 -87 l-53 -27 -30 68 c-17 37 -51 129
-75 203 -25 74 -50 140 -56 147 -8 10 -21 4 -60 -30 -116 -98 -118 -99 -176
-93 -46 5 -61 2 -126 -29 -94 -45 -131 -45 -188 -2 -42 32 -147 170 -148 195
0 21 28 25 55 8 56 -36 70 -10 33 60 -13 26 -19 48 -14 60 6 16 19 7 85 -65
l78 -85 26 39 c20 29 27 52 27 87 0 73 19 193 46 287 35 121 187 421 214 421
6 0 23 -24 38 -53 55 -108 100 -157 203 -219 25 -16 25 -16 37 -233 6 -120 15
-222 20 -227 5 -5 29 34 56 94 76 164 77 167 156 241 78 72 119 97 167 97 15
1 53 9 83 20 89 31 189 25 340 -22 39 -12 107 -22 172 -25 96 -5 111 -4 148
16 52 27 60 26 120 -4 35 -18 60 -41 88 -82 22 -32 60 -81 85 -109 26 -28 43
-55 39 -58 -4 -4 -2 -6 3 -4 6 1 30 -11 55 -28 70 -48 217 -119 306 -147 85
-27 277 -67 320 -67 l26 0 -29 36 c-15 20 -69 79 -119 132 -125 134 -177 199
-164 207 12 7 126 -93 238 -209 114 -117 192 -169 274 -182 37 -7 104 8 132
29 16 12 17 18 7 49 -6 19 -23 46 -36 58 -23 22 -32 50 -19 62 3 3 44 -14 91
-38 99 -50 156 -64 258 -64 l74 0 26 43 c32 55 32 96 -1 163 -57 117 -23 133
358 173 215 23 241 54 153 186 -32 48 -219 235 -321 321 -123 103 -263 213
-301 237 -52 33 -49 23 19 -80 53 -80 114 -148 315 -354 73 -74 133 -143 133
-152 0 -9 -1 -17 -3 -17 -14 0 -174 73 -188 86 -11 10 -19 14 -19 9 0 -4 -6
-3 -12 3 -7 5 -62 35 -123 65 -94 46 -183 77 -227 77 -13 0 -5 -147 11 -195
15 -49 50 -207 53 -245 2 -29 -1 -36 -18 -38 -16 -2 -73 49 -230 205 -115 115
-269 267 -342 338 -129 125 -133 128 -113 83 33 -78 57 -112 258 -367 167
-211 185 -252 78 -180 -33 22 -77 49 -97 60 l-37 19 2 -37 2 -38 -40 2 c-62 4
-126 29 -315 120 -189 91 -209 101 -285 134 -27 12 -53 23 -57 26 -9 5 35
-115 62 -172 11 -22 38 -64 61 -94 22 -30 37 -57 32 -62 -5 -5 -85 43 -182
107 -187 125 -213 138 -371 190 -90 29 -112 41 -155 82 -106 102 -207 161
-368 214 -110 37 -109 35 -176 190 l-29 66 -88 6 c-49 4 -116 14 -149 22 -33
8 -77 19 -98 23 -54 12 -87 46 -87 91 0 55 27 123 66 169 38 44 77 53 119 28
47 -27 152 -118 183 -156 18 -23 37 -41 42 -41 18 0 101 121 107 154 4 24 -1
48 -16 79 -11 24 -21 48 -21 54 0 6 -21 24 -46 40 -25 15 -79 57 -120 92 -96
82 -98 102 -20 177 64 63 98 74 221 74 107 0 118 -5 222 -112 143 -146 280
-284 322 -323 l43 -40 -4 81 c-4 110 -19 127 -231 268 -94 63 -194 135 -222
159 l-49 44 26 17 c14 9 70 28 124 41 55 13 125 33 157 44 58 20 59 20 95 1
67 -34 140 -109 209 -213 37 -56 78 -115 91 -132 l25 -30 -8 45 c-4 25 -25 99
-46 165 -52 164 -69 234 -58 240 23 15 158 -109 264 -242 l50 -63 3 46 c4 59
-21 139 -69 217 -20 34 -35 66 -32 70 5 9 60 3 171 -20z m-118 -2720 c614 -13
715 -17 715 -32 0 -8 -18 -19 -40 -26 -22 -6 -67 -26 -99 -43 -66 -36 -86 -38
-146 -17 -57 20 -67 19 -74 -7 -11 -43 -32 -61 -54 -49 -11 6 -58 14 -104 18
l-83 8 -3 43 c-3 37 -5 42 -18 31 -26 -21 -127 -59 -159 -59 -42 0 -76 20 -95
55 -15 27 -22 30 -72 33 -39 2 -61 9 -73 22 -21 23 -10 44 19 35 11 -3 140 -8
286 -12z m314 -249 c42 -27 63 -76 80 -190 25 -158 57 -246 136 -371 49 -77
101 -141 182 -224 163 -167 290 -249 458 -299 41 -12 88 -26 104 -31 58 -18
236 -5 308 23 42 16 50 2 26 -43 -25 -49 -107 -116 -151 -124 -18 -4 -78 -2
-133 3 -151 13 -195 40 -474 281 -58 50 -129 120 -159 156 -33 40 -61 65 -73
65 -11 0 -35 -15 -53 -33 -34 -34 -51 -79 -61 -157 l-6 -45 41 45 40 45 37
-20 c29 -15 46 -36 70 -85 50 -100 41 -156 -29 -179 -46 -15 -118 -7 -134 14
-15 22 -13 24 -38 -40 -29 -72 -63 -87 -204 -86 -77 1 -119 -3 -146 -14 -30
-13 -43 -14 -72 -4 -47 15 -106 69 -154 141 -22 32 -41 58 -43 58 -2 0 -24
-11 -47 -25 -24 -14 -59 -25 -77 -25 -46 0 -90 25 -98 56 -22 88 59 214 137
214 14 0 43 -11 63 -25 l36 -24 0 29 c0 59 -15 78 -67 85 -26 3 -56 10 -65 16
-39 21 -75 10 -124 -37 -53 -50 -128 -102 -184 -128 -19 -9 -51 -25 -70 -36
-78 -42 -281 -105 -409 -127 -127 -21 -185 -9 -247 53 -28 27 -42 49 -38 58 5
14 9 14 36 0 70 -36 159 -50 279 -42 63 4 132 12 154 19 22 6 63 18 90 26 199
60 465 256 598 441 97 135 144 247 172 405 21 125 34 140 163 187 80 29 95 28
146 -6z m-2637 -64 c7 -25 18 -59 23 -76 6 -17 10 -63 10 -103 0 -44 6 -86 16
-109 16 -36 17 -37 24 -12 5 14 8 37 9 51 1 38 24 54 42 31 34 -40 61 -118 85
-242 19 -101 48 -170 71 -170 9 0 30 12 45 27 34 33 42 27 62 -54 38 -146 28
-291 -24 -338 -20 -18 -21 -18 -50 10 -27 26 -48 70 -54 113 -2 12 -14 18 -40
20 -30 3 -39 9 -47 30 -5 15 -26 59 -46 99 -38 73 -38 97 -2 75 16 -10 20 -10
25 3 11 27 -2 98 -24 140 -12 22 -30 57 -40 78 -17 33 -20 35 -25 18 -6 -26
-33 -27 -46 -2 -11 19 -30 89 -37 131 -2 14 -13 57 -25 95 -22 73 -36 193 -25
221 4 10 15 14 33 12 22 -2 29 -11 40 -48z m1891 -1012 c7 -7 12 -44 12 -98
l0 -86 69 -52 c38 -28 86 -60 108 -72 26 -13 52 -40 78 -81 67 -106 160 -154
293 -151 162 2 316 78 465 230 72 74 78 84 95 151 24 93 48 127 84 118 15 -4
76 -54 135 -111 59 -57 123 -116 141 -131 17 -15 32 -32 32 -37 0 -6 11 -26
26 -45 14 -18 23 -37 19 -42 -8 -13 -114 -61 -135 -61 -9 0 -25 9 -35 20 -10
11 -22 20 -27 20 -6 0 -40 -27 -77 -60 -100 -89 -142 -101 -368 -107 -175 -5
-183 -7 -197 -28 -8 -12 -40 -32 -71 -45 -51 -21 -62 -22 -107 -12 -27 7 -64
12 -81 12 -26 0 -186 28 -317 56 -64 13 -107 28 -173 59 -40 18 -124 56 -187
83 -63 27 -142 61 -175 76 l-60 27 0 53 0 54 65 32 c87 43 194 114 250 166 45
42 95 74 116 74 5 0 15 -5 22 -12z m-764 -407 c17 -11 48 -22 68 -26 29 -6 48
-20 84 -62 44 -51 50 -54 81 -49 112 20 97 26 359 -133 140 -84 266 -147 334
-165 14 -4 -10 12 -52 34 -86 45 -107 69 -80 92 21 18 106 22 177 9 268 -53
354 -57 495 -21 122 30 271 38 306 15 14 -9 24 -25 24 -38 0 -23 -31 -58 -60
-70 -8 -3 -51 -22 -95 -42 l-80 -35 50 4 c90 7 221 67 290 132 45 43 133 95
235 139 47 21 90 41 95 45 6 4 51 22 100 40 50 18 97 35 105 38 8 3 17 6 20 7
13 3 147 47 160 53 8 3 20 6 25 7 6 0 15 3 20 7 6 3 27 9 47 13 28 5 39 4 43
-7 17 -44 -52 -346 -114 -496 -44 -110 -178 -314 -359 -547 -30 -38 -80 -104
-110 -145 -31 -41 -79 -98 -107 -126 -43 -44 -57 -53 -100 -59 -27 -4 -79 -22
-115 -41 -73 -38 -85 -41 -98 -18 -17 30 0 65 49 102 27 20 49 39 49 43 0 3
11 18 24 32 14 15 37 43 53 63 40 53 3 31 -62 -36 -27 -29 -68 -64 -90 -79
-55 -38 -166 -81 -210 -81 -20 0 -75 -9 -123 -19 -181 -40 -225 -45 -344 -34
-137 13 -214 38 -319 103 -116 72 -190 131 -310 248 -103 100 -149 139 -149
127 0 -10 33 -58 73 -108 22 -26 57 -75 79 -109 39 -60 39 -61 20 -80 -19 -19
-19 -19 -65 28 -26 26 -47 53 -47 61 0 7 -6 13 -14 13 -38 0 -260 201 -332
300 -47 64 -114 177 -114 191 0 5 -12 21 -27 34 -23 19 -26 27 -17 41 6 10 15
19 21 21 5 2 72 -57 149 -130 144 -139 197 -187 208 -187 4 0 -21 53 -55 118
-61 118 -108 240 -148 387 -41 151 -99 400 -94 408 6 11 12 9 47 -12z"/>
<path d="M3190 1801 c-43 -32 -302 -158 -371 -181 -57 -19 -82 -21 -170 -17
-173 8 -235 27 -444 132 -188 94 -206 96 -166 17 37 -73 100 -126 181 -155
228 -79 242 -82 420 -81 271 2 380 41 523 188 48 49 86 95 84 100 -6 18 -31
17 -57 -3z"/>
</g>
</svg>
